<?xml version="1.0" encoding="utf-8"?>
<!-- Generator: Adobe Illustrator 25.0.0, SVG Export Plug-In . SVG Version: 6.00 Build 0)  -->
<svg version="1.1" id="Layer_1" xmlns="http://www.w3.org/2000/svg" xmlns:xlink="http://www.w3.org/1999/xlink" x="0px" y="0px"
	 viewBox="0 0 50 50" style="enable-background:new 0 0 50 50;" xml:space="preserve">
<style type="text/css">
	.st0{fill:#020303;}
	.st1{fill:#131313;}
	.st2{fill:#FEFEFE;}
	.st3{fill:#0C0D0D;}
	.st4{fill:#0A0B0B;}
</style>
<g>
	<path d="M40.87,15.54c-0.01-0.51-0.02-1.11-0.46-1.44c-0.71-0.56-0.74-1.35-0.83-2.13c-0.03-0.27-0.09-0.53-0.17-0.8
		C38.9,9.62,38.23,8.14,37.3,6.8c-0.67-0.98-1.45-1.86-2.33-2.63c-1.18-1.04-2.5-1.91-3.98-2.5c-0.76-0.31-1.5-0.62-2.32-0.76
		c-0.69-0.13-1.42-0.17-2.06-0.48H26.2c-0.09,0.09-0.18,0.09-0.28,0h-1.64c-0.09,0.09-0.17,0.09-0.27,0h-0.69
		c-0.14,0.28-0.43,0.21-0.65,0.24c-1.89,0.27-3.62,0.94-5.23,1.92c-1.46,0.88-2.71,1.98-3.8,3.3c-0.58,0.71-1.06,1.46-1.51,2.25
		c-0.71,1.26-1.28,2.58-1.51,4.03c-0.08,0.52,0.05,1.15-0.43,1.52c-0.68,0.52-0.84,1.22-0.86,1.97c-0.03,1.47-0.02,2.95,0.01,4.42
		c0.01,0.55,0,1.21,0.51,1.56c0.84,0.56,1.11,1.44,1.44,2.29c0.2,0.48,0.33,0.99,0.59,1.44c1.23,2.18,2.78,4.09,4.91,5.46
		c0.2,0.13,0.32,0.3,0.4,0.53c0.36,0.94,1.39,1.73,2.4,1.64c1.13-0.12,1.52-0.28,1.31-1.58c-0.14-0.9-1.38-1.73-2.45-1.62
		c-0.44,0.05-0.8-0.05-1.13-0.31c-0.98-0.78-1.9-1.61-2.7-2.62c-0.94-1.19-1.66-2.45-2.13-3.88c-0.13-0.38-0.15-0.58,0.23-0.81
		c0.56-0.36,1.01-0.83,1.05-1.57c0.13-0.17,0.03-0.38,0.08-0.56c0.01-0.1,0.03-0.24,0.18-0.1c0.32,1.21,0.71,2.4,1.24,3.51
		c0.67,1.44,1.47,2.79,2.56,3.96c1.5,1.64,3.17,3.01,5.4,3.51c2.7,0.62,5.09-0.06,7.25-1.74c1.23-0.96,2.26-2.11,3.12-3.42
		c0.75-1.16,1.42-2.35,1.84-3.68c0.27-0.82,0.58-1.62,0.86-2.43c0.08,0.2,0.08,0.38,0.08,0.56c0.07,1.28,0.98,2.26,2.12,2.3
		c1.28,0.03,2.29-0.9,2.34-2.29C40.93,18.68,40.91,17.11,40.87,15.54z M37.97,13.32c-0.62,0.03-0.89,0.63-1.38,1.01
		c-0.09-0.55-0.14-1.06-0.28-1.56c-0.56-2.1-1.57-3.95-3.26-5.34c-1.84-1.5-3.98-2.39-6.38-2.5c-2.12-0.1-4.22-0.1-6.23,0.67
		c-1.67,0.63-3.19,1.52-4.32,2.9c-1.28,1.54-2.19,3.31-2.36,5.37c-0.01,0.13-0.07,0.25-0.12,0.44c-0.48-0.48-0.91-0.94-1.51-1.19
		c-0.24-0.09-0.21-0.25-0.16-0.45c0.52-2.03,1.3-3.92,2.6-5.61c1.33-1.72,2.95-3,4.84-3.93c2.11-1.04,4.39-1.34,6.76-1.2
		c2.56,0.15,4.81,1.08,6.84,2.52c1.92,1.36,3.38,3.19,4.32,5.35c0.43,0.97,0.78,1.98,0.96,3.04C38.35,13.17,38.35,13.28,37.97,13.32
		z"/>
	<path d="M2.73,49.82c0-2.36-0.08-4.73,0.04-7.09c0.07-1.35,0.63-2.59,1.38-3.76c0.62-0.96,1.33-1.82,2.17-2.56
		c0.69-0.61,1.39-1.18,2.26-1.57c1.84-0.82,3.63-1.74,5.44-2.61c0.51-0.24,1.04-0.44,1.54-0.69c0.34-0.17,0.45,0.05,0.56,0.27
		c0.43,0.84,0.84,1.7,1.25,2.54c0.8,1.64,1.55,3.3,2.37,4.92c0.4,0.78,0.72,1.6,1.25,2.44c0.38-0.94,0.74-1.79,1.06-2.66
		c0.46-1.25,0.9-2.5,1.33-3.76c0.11-0.33,0.3-0.41,0.61-0.37c0.72,0.09,1.45,0.12,2.17,0.01c0.41-0.06,0.59,0.09,0.73,0.48
		c0.61,1.75,1.26,3.48,1.9,5.22c0.09,0.25,0.21,0.49,0.36,0.81c0.74-1.51,1.44-2.94,2.14-4.38c0.66-1.36,1.31-2.72,1.97-4.09
		c0.23-0.48,0.35-1.02,0.68-1.47c0.15-0.22,0.25-0.24,0.49-0.12c1.9,0.91,3.8,1.81,5.71,2.68c2.13,0.97,4.01,2.26,5.46,4.1
		c0.4,0.5,0.52,1.19,0.96,1.67c0.07,0.15,0.12,0.31,0.24,0.44c-0.06,0.44,0.31,0.71,0.41,1.09c0.19,0.68,0.32,1.36,0.31,2.07
		c-0.02,2.13-0.01,4.26-0.02,6.39C32.58,49.82,17.65,49.82,2.73,49.82z"/>
	<path d="M24.29,0.42c-0.09,0.18-0.18,0.2-0.27,0C24.11,0.42,24.2,0.42,24.29,0.42z"/>
	<path d="M26.21,0.42c-0.09,0.2-0.18,0.17-0.27,0C26.02,0.42,26.11,0.42,26.21,0.42z"/>
	<path d="M46.79,40.27c-0.28-0.04-0.25-0.24-0.24-0.44C46.68,39.95,46.81,40.07,46.79,40.27z"/>
</g>
</svg>
