<?xml version="1.0" encoding="utf-8"?>
<!-- Generator: Adobe Illustrator 25.0.0, SVG Export Plug-In . SVG Version: 6.00 Build 0)  -->
<svg version="1.1" id="Layer_1" xmlns="http://www.w3.org/2000/svg" xmlns:xlink="http://www.w3.org/1999/xlink" x="0px" y="0px"
	 viewBox="0 0 50 50" style="enable-background:new 0 0 50 50;" xml:space="preserve">
<style type="text/css">
	.st0{fill:#020303;}
	.st1{fill:#131313;}
	.st2{fill:#FEFEFE;}
	.st3{fill:#0C0D0D;}
	.st4{fill:#0A0B0B;}
</style>
<g>
	<path class="st0" d="M6.82,42.27c-0.69-0.67-1.39-1.33-2.07-2c-0.45-0.45-0.53-0.93-0.14-1.5c0.95-1.4,0.97-2.88,0.29-4.4
		c-0.11-0.25-0.23-0.51-0.32-0.77c-0.56-1.49-1.61-2.44-3.17-2.76c-0.75-0.15-1.09-0.55-1.07-1.31c0.02-0.86,0-1.72,0.01-2.59
		c0-0.64,0.26-1.03,0.94-1.17c1.69-0.33,2.78-1.36,3.36-2.96c0.23-0.64,0.6-1.24,0.67-1.93c0.12-1.12-0.02-2.18-0.71-3.1
		c-0.39-0.53-0.29-1,0.12-1.43c0.67-0.69,1.35-1.37,2.04-2.04c0.42-0.4,0.87-0.42,1.37-0.08c1.34,0.92,2.77,1.03,4.26,0.38
		c0.67-0.29,1.38-0.5,1.99-0.93c0.94-0.69,1.55-1.59,1.75-2.74c0.11-0.61,0.45-0.94,1.08-0.94c0.96,0,1.93,0,2.89,0
		c0.6,0,0.93,0.3,1.04,0.89c0.32,1.69,1.32,2.79,2.93,3.38c1.64,0.6,2.04,1.4,1.63,3.12c-0.15,0.62-0.63,0.8-1.22,0.79
		c-2-0.02-4.01-0.06-6.01-0.02c-5.99,0.11-10.52,5.19-9.95,11.12c0.49,5.12,4.82,9.11,9.97,9.16c1.98,0.02,3.95-0.01,5.93-0.02
		c1-0.01,1.28,0.26,1.29,1.24c0,0.33-0.01,0.66,0,0.99c0.02,0.67-0.31,1.1-0.9,1.35c-0.37,0.16-0.75,0.31-1.12,0.47
		c-1.38,0.59-2.25,1.65-2.54,3.1c-0.15,0.76-0.54,1.02-1.25,1.01c-0.89-0.01-1.77,0-2.66,0c-0.65,0-1.01-0.3-1.14-0.97
		c-0.27-1.48-1.13-2.53-2.5-3.12c-1.18-0.51-2.33-1.16-3.7-0.88c-0.67,0.14-1.3,0.36-1.87,0.74c-0.21,0.14-0.45,0.32-0.74,0.19
		C7.2,42.34,6.97,42.38,6.82,42.27z"/>
	<path class="st0" d="M46.97,18.14c-1.5-0.39-3.09,0.27-3.9,1.67c-0.21,0.36-0.43,0.49-0.83,0.49c-1.62-0.02-3.25,0-4.87-0.02
		c-0.84-0.01-1.51,0.29-2.09,0.9c-0.98,1.02-2.01,2-3,3.02c-0.4,0.42-0.86,0.57-1.42,0.56c-1.83-0.02-3.65-0.01-5.48-0.01
		s-3.65,0-5.48,0c-0.98,0-1.22,0.27-1.22,1.29c0,0.99,0.27,1.28,1.25,1.28c3.9,0,7.81-0.01,11.71,0.01c0.82,0,1.46-0.28,2.03-0.86
		c1.01-1.03,2.05-2.04,3.05-3.07c0.35-0.36,0.72-0.51,1.21-0.5c1.34,0.02,2.69,0.02,4.03,0c0.55-0.01,0.89,0.1,1.21,0.62
		c0.88,1.41,2.48,1.92,4.05,1.42c1.45-0.46,2.45-1.88,2.42-3.41C49.63,19.94,48.52,18.55,46.97,18.14z M47.39,22.71
		c-0.11,0.14-0.25,0.24-0.38,0.36c-0.68,0.33-1.34,0.24-1.97-0.13h0c-0.14-0.17-0.29-0.34-0.43-0.51c-0.14-0.44-0.28-0.88-0.11-1.33
		c0.26-0.7,0.75-1.15,1.51-1.21c0.72-0.06,1.28,0.27,1.62,0.91C47.97,21.48,47.85,22.12,47.39,22.71z"/>
	<path class="st0" d="M38.74,27.4c-1.58-0.45-3.19,0.17-4.04,1.64c-0.24,0.41-0.51,0.47-0.91,0.47c-2.3-0.01-4.61-0.01-6.92,0
		c-2.33,0-4.66,0-6.99,0c-0.49,0-0.92,0.08-1.12,0.58c-0.47,1.19,0.08,2.02,1.34,2.02c4.56,0,9.12,0,13.68,0
		c0.41,0,0.68,0.07,0.91,0.48c0.83,1.44,2.44,2.08,3.96,1.65c1.58-0.45,2.62-1.81,2.62-3.42C41.29,29.23,40.24,27.82,38.74,27.4z
		 M37.73,32.5c-0.92-0.01-1.67-0.78-1.68-1.7c0-0.92,0.75-1.7,1.67-1.7c0.94,0,1.69,0.72,1.7,1.66
		C39.44,31.73,38.68,32.51,37.73,32.5z"/>
	<path class="st0" d="M34.44,12.35c-1.24-0.62-2.81-0.38-3.82,0.57c-1.12,1.05-1.48,2.35-0.96,3.81c0.19,0.54,0.14,0.88-0.27,1.25
		c-0.44,0.41-0.85,0.87-1.23,1.34c-0.39,0.46-0.84,0.67-1.46,0.65c-1.09-0.04-2.18-0.01-3.27-0.01c-1.17,0-2.33-0.01-3.5,0
		c-0.97,0.01-1.23,0.29-1.24,1.3c-0.01,1.01,0.25,1.3,1.22,1.31c2.53,0.01,5.07,0,7.61,0c0.75,0,1.38-0.23,1.89-0.8
		c0.71-0.79,1.46-1.55,2.16-2.35c0.28-0.32,0.53-0.41,0.97-0.35c2.05,0.27,3.92-1.32,3.96-3.36C36.54,14.16,35.81,13.03,34.44,12.35
		z M32.92,17.28c-0.92-0.02-1.63-0.79-1.63-1.75c0.01-0.93,0.76-1.68,1.69-1.67c0.91,0.01,1.69,0.79,1.69,1.7
		C34.67,16.49,33.85,17.3,32.92,17.28z"/>
	<path class="st0" d="M32.68,37.18c-1.16,0.04-1.75-0.42-2.34-1.19c-0.18-0.24-0.42-0.44-0.6-0.69c-0.58-0.78-1.37-1.07-2.32-1.06
		c-1.24,0.01-2.48,0-3.72,0c0,0,0,0,0,0c-1.27,0-2.53-0.01-3.8,0c-0.96,0.01-1.22,0.31-1.22,1.32c0,1.01,0.25,1.28,1.25,1.28
		c1.97,0.01,3.95,0.09,5.92-0.03c1.34-0.08,2.26,0.33,3.02,1.41c0.31,0.44,0.49,0.75,0.29,1.32c-0.7,2.01,0.47,4.07,2.54,4.57
		c1.97,0.48,3.98-0.89,4.31-2.93C36.35,39.19,34.75,37.1,32.68,37.18z M34.15,41.07c-0.19,0.74-0.82,1.26-1.58,1.3
		c-0.71,0.03-1.39-0.42-1.65-1.09c-0.27-0.71-0.02-1.52,0.64-2.05c0.08-0.06,0.16-0.12,0.23-0.18c0.03,0,0.05-0.01,0.08-0.01
		c0.23-0.04,0.46-0.07,0.68-0.11C33.81,39.3,34.4,40.09,34.15,41.07z"/>
	<path class="st1" d="M6.82,42.27c0.17,0.08,0.65-0.41,0.48,0.27C7.08,42.56,6.93,42.45,6.82,42.27z"/>
	<path class="st2" d="M44.6,22.43c0.14,0.17,0.29,0.34,0.43,0.51C44.85,22.8,44.65,22.68,44.6,22.43z"/>
	<path class="st2" d="M47,23.07c-0.62,0.41-1.43,0.36-1.97-0.13C45.67,23.3,46.32,23.4,47,23.07z"/>
	<path class="st3" d="M47,23.14c-0.41,0.53-1.68,0.4-1.97-0.2c0.64,0.36,1.29,0.45,1.97,0.13C47,23.09,47.01,23.13,47,23.14z"/>
	<path class="st3" d="M45.03,22.94c-0.31-0.03-0.46-0.2-0.43-0.51C44.74,22.6,44.89,22.77,45.03,22.94z"/>
	<path class="st2" d="M32.56,38.93c-0.23,0.04-0.46,0.07-0.68,0.11C32.1,38.98,32.3,38.76,32.56,38.93z"/>
	<path class="st4" d="M32.56,38.93c-0.23,0.04-0.46,0.07-0.68,0.11c-0.03,0-0.05,0.01-0.08,0.01C32.03,38.9,32.24,38.59,32.56,38.93
		z"/>
</g>
<g>
	<path class="st0" d="M6.82,42.27c-0.69-0.67-1.39-1.33-2.07-2c-0.45-0.45-0.53-0.93-0.14-1.5c0.95-1.4,0.97-2.88,0.29-4.4
		c-0.11-0.25-0.23-0.51-0.32-0.77c-0.56-1.49-1.61-2.44-3.17-2.76c-0.75-0.15-1.09-0.55-1.07-1.31c0.02-0.86,0-1.72,0.01-2.59
		c0-0.64,0.26-1.03,0.94-1.17c1.69-0.33,2.78-1.36,3.36-2.96c0.23-0.64,0.6-1.24,0.67-1.93c0.12-1.12-0.02-2.18-0.71-3.1
		c-0.39-0.53-0.29-1,0.12-1.43c0.67-0.69,1.35-1.37,2.04-2.04c0.42-0.4,0.87-0.42,1.37-0.08c1.34,0.92,2.77,1.03,4.26,0.38
		c0.67-0.29,1.38-0.5,1.99-0.93c0.94-0.69,1.55-1.59,1.75-2.74c0.11-0.61,0.45-0.94,1.08-0.94c0.96,0,1.93,0,2.89,0
		c0.6,0,0.93,0.3,1.04,0.89c0.32,1.69,1.32,2.79,2.93,3.38c1.64,0.6,2.04,1.4,1.63,3.12c-0.15,0.62-0.63,0.8-1.22,0.79
		c-2-0.02-4.01-0.06-6.01-0.02c-5.99,0.11-10.52,5.19-9.95,11.12c0.49,5.12,4.82,9.11,9.97,9.16c1.98,0.02,3.95-0.01,5.93-0.02
		c1-0.01,1.28,0.26,1.29,1.24c0,0.33-0.01,0.66,0,0.99c0.02,0.67-0.31,1.1-0.9,1.35c-0.37,0.16-0.75,0.31-1.12,0.47
		c-1.38,0.59-2.25,1.65-2.54,3.1c-0.15,0.76-0.54,1.02-1.25,1.01c-0.89-0.01-1.77,0-2.66,0c-0.65,0-1.01-0.3-1.14-0.97
		c-0.27-1.48-1.13-2.53-2.5-3.12c-1.18-0.51-2.33-1.16-3.7-0.88c-0.67,0.14-1.3,0.36-1.87,0.74c-0.21,0.14-0.45,0.32-0.74,0.19
		C7.2,42.34,6.97,42.38,6.82,42.27z"/>
	<path class="st0" d="M46.97,18.14c-1.5-0.39-3.09,0.27-3.9,1.67c-0.21,0.36-0.43,0.49-0.83,0.49c-1.62-0.02-3.25,0-4.87-0.02
		c-0.84-0.01-1.51,0.29-2.09,0.9c-0.98,1.02-2.01,2-3,3.02c-0.4,0.42-0.86,0.57-1.42,0.56c-1.83-0.02-3.65-0.01-5.48-0.01
		s-3.65,0-5.48,0c-0.98,0-1.22,0.27-1.22,1.29c0,0.99,0.27,1.28,1.25,1.28c3.9,0,7.81-0.01,11.71,0.01c0.82,0,1.46-0.28,2.03-0.86
		c1.01-1.03,2.05-2.04,3.05-3.07c0.35-0.36,0.72-0.51,1.21-0.5c1.34,0.02,2.69,0.02,4.03,0c0.55-0.01,0.89,0.1,1.21,0.62
		c0.88,1.41,2.48,1.92,4.05,1.42c1.45-0.46,2.45-1.88,2.42-3.41C49.63,19.94,48.52,18.55,46.97,18.14z M47.39,22.71
		c-0.11,0.14-0.25,0.24-0.38,0.36c-0.68,0.33-1.34,0.24-1.97-0.13h0c-0.14-0.17-0.29-0.34-0.43-0.51c-0.14-0.44-0.28-0.88-0.11-1.33
		c0.26-0.7,0.75-1.15,1.51-1.21c0.72-0.06,1.28,0.27,1.62,0.91C47.97,21.48,47.85,22.12,47.39,22.71z"/>
	<path class="st0" d="M38.74,27.4c-1.58-0.45-3.19,0.17-4.04,1.64c-0.24,0.41-0.51,0.47-0.91,0.47c-2.3-0.01-4.61-0.01-6.92,0
		c-2.33,0-4.66,0-6.99,0c-0.49,0-0.92,0.08-1.12,0.58c-0.47,1.19,0.08,2.02,1.34,2.02c4.56,0,9.12,0,13.68,0
		c0.41,0,0.68,0.07,0.91,0.48c0.83,1.44,2.44,2.08,3.96,1.65c1.58-0.45,2.62-1.81,2.62-3.42C41.29,29.23,40.24,27.82,38.74,27.4z
		 M37.73,32.5c-0.92-0.01-1.67-0.78-1.68-1.7c0-0.92,0.75-1.7,1.67-1.7c0.94,0,1.69,0.72,1.7,1.66
		C39.44,31.73,38.68,32.51,37.73,32.5z"/>
	<path class="st0" d="M34.44,12.35c-1.24-0.62-2.81-0.38-3.82,0.57c-1.12,1.05-1.48,2.35-0.96,3.81c0.19,0.54,0.14,0.88-0.27,1.25
		c-0.44,0.41-0.85,0.87-1.23,1.34c-0.39,0.46-0.84,0.67-1.46,0.65c-1.09-0.04-2.18-0.01-3.27-0.01c-1.17,0-2.33-0.01-3.5,0
		c-0.97,0.01-1.23,0.29-1.24,1.3c-0.01,1.01,0.25,1.3,1.22,1.31c2.53,0.01,5.07,0,7.61,0c0.75,0,1.38-0.23,1.89-0.8
		c0.71-0.79,1.46-1.55,2.16-2.35c0.28-0.32,0.53-0.41,0.97-0.35c2.05,0.27,3.92-1.32,3.96-3.36C36.54,14.16,35.81,13.03,34.44,12.35
		z M32.92,17.28c-0.92-0.02-1.63-0.79-1.63-1.75c0.01-0.93,0.76-1.68,1.69-1.67c0.91,0.01,1.69,0.79,1.69,1.7
		C34.67,16.49,33.85,17.3,32.92,17.28z"/>
	<path class="st0" d="M32.68,37.18c-1.16,0.04-1.75-0.42-2.34-1.19c-0.18-0.24-0.42-0.44-0.6-0.69c-0.58-0.78-1.37-1.07-2.32-1.06
		c-1.24,0.01-2.48,0-3.72,0c0,0,0,0,0,0c-1.27,0-2.53-0.01-3.8,0c-0.96,0.01-1.22,0.31-1.22,1.32c0,1.01,0.25,1.28,1.25,1.28
		c1.97,0.01,3.95,0.09,5.92-0.03c1.34-0.08,2.26,0.33,3.02,1.41c0.31,0.44,0.49,0.75,0.29,1.32c-0.7,2.01,0.47,4.07,2.54,4.57
		c1.97,0.48,3.98-0.89,4.31-2.93C36.35,39.19,34.75,37.1,32.68,37.18z M34.15,41.07c-0.19,0.74-0.82,1.26-1.58,1.3
		c-0.71,0.03-1.39-0.42-1.65-1.09c-0.27-0.71-0.02-1.52,0.64-2.05c0.08-0.06,0.16-0.12,0.23-0.18c0.03,0,0.05-0.01,0.08-0.01
		c0.23-0.04,0.46-0.07,0.68-0.11C33.81,39.3,34.4,40.09,34.15,41.07z"/>
	<path class="st1" d="M6.82,42.27c0.17,0.08,0.65-0.41,0.48,0.27C7.08,42.56,6.93,42.45,6.82,42.27z"/>
	<path class="st2" d="M44.6,22.43c0.14,0.17,0.29,0.34,0.43,0.51C44.85,22.8,44.65,22.68,44.6,22.43z"/>
	<path class="st2" d="M47,23.07c-0.62,0.41-1.43,0.36-1.97-0.13C45.67,23.3,46.32,23.4,47,23.07z"/>
	<path class="st3" d="M47,23.14c-0.41,0.53-1.68,0.4-1.97-0.2c0.64,0.36,1.29,0.45,1.97,0.13C47,23.09,47.01,23.13,47,23.14z"/>
	<path class="st3" d="M45.03,22.94c-0.31-0.03-0.46-0.2-0.43-0.51C44.74,22.6,44.89,22.77,45.03,22.94z"/>
	<path class="st2" d="M32.56,38.93c-0.23,0.04-0.46,0.07-0.68,0.11C32.1,38.98,32.3,38.76,32.56,38.93z"/>
	<path class="st4" d="M32.56,38.93c-0.23,0.04-0.46,0.07-0.68,0.11c-0.03,0-0.05,0.01-0.08,0.01C32.03,38.9,32.24,38.59,32.56,38.93
		z"/>
</g>
</svg>
