<?xml version="1.0" encoding="utf-8"?>
<!-- Generator: Adobe Illustrator 25.0.0, SVG Export Plug-In . SVG Version: 6.00 Build 0)  -->
<svg version="1.1" id="Layer_1" xmlns="http://www.w3.org/2000/svg" xmlns:xlink="http://www.w3.org/1999/xlink" x="0px" y="0px"
	 viewBox="0 0 50 50" style="enable-background:new 0 0 50 50;" xml:space="preserve">
<style type="text/css">
	.st0{fill:#020303;}
	.st1{fill:#131313;}
	.st2{fill:#FEFEFE;}
	.st3{fill:#0C0D0D;}
	.st4{fill:#0A0B0B;}
</style>
<g>
	<path d="M15.88,20.23c-0.25,0.49-0.7,0.28-1.07,0.29c-1.6,0.03-2.08,0.47-2.15,2.06c-0.09,2.03-0.09,2.03-2.08,2.03
		c-1.09,0-2.19-0.02-3.28,0.01c-0.47,0.01-0.65-0.15-0.73-0.61c-0.42-2.44-0.43-2.44,1.82-3.45c1.3-0.58,1.51-2.06,0.42-2.98
		c-0.24-0.21-0.49-0.41-0.73-0.62c-0.97-0.85-0.97-0.85-0.51-2.03c0.41-1.07,0.92-2.09,1.5-3.08c0.17-0.29,0.35-0.43,0.7-0.37
		c0.5,0.09,1.02,0.08,1.5,0.22c0.87,0.25,1.49,0.07,2.01-0.72c0.26-0.39,0.43-0.68,0.27-1.15c-0.22-0.65-0.36-1.33-0.58-1.99
		c-0.12-0.36-0.06-0.57,0.25-0.81c1.07-0.84,2.21-1.56,3.41-2.21c0.49-0.27,0.8-0.18,1.17,0.2c0.44,0.46,0.95,0.84,1.43,1.27
		c0.27,0.25,0.53,0.26,0.91,0.21c1.12-0.14,1.53-0.79,1.75-1.81c0.37-1.68,0.43-1.65,2.13-1.79c1.04-0.08,2.08,0.06,3.11,0.04
		c0.41-0.01,0.54,0.21,0.63,0.56c0.18,0.69,0.37,1.39,0.59,2.07c0.29,0.85,1.8,1.22,2.48,0.62c0.36-0.32,0.77-0.59,1.06-0.96
		c0.6-0.76,1.18-0.62,1.91-0.17c0.97,0.6,1.94,1.2,2.85,1.9c0.34,0.26,0.5,0.49,0.31,0.93c-0.16,0.36-0.16,0.8-0.35,1.14
		c-0.58,1.07-0.16,1.85,0.62,2.58c0.2,0.19,0.38,0.22,0.64,0.18c0.63-0.1,1.29-0.09,1.89-0.26c0.68-0.19,0.99,0.03,1.3,0.62
		c0.61,1.16,1.16,2.33,1.58,3.57c0.12,0.34,0.07,0.54-0.21,0.74c-0.32,0.24-0.59,0.55-0.92,0.77c-0.8,0.55-1.28,1.17-0.97,2.25
		c0.13,0.45,0.19,0.76,0.67,0.92c0.6,0.21,1.16,0.54,1.75,0.77c0.48,0.18,0.59,0.46,0.57,0.96c-0.13,2.46-0.11,2.46-2.56,2.46
		c-0.99,0-1.97-0.03-2.96,0c-0.44,0.01-0.63-0.14-0.64-0.58c-0.02-0.59-0.08-1.17-0.11-1.75c-0.06-1.11-0.73-1.79-1.83-1.75
		c-0.55,0.02-0.89-0.1-1.03-0.65c-0.11-0.2,0.04-0.32,0.14-0.46c0.05-0.04,0.11-0.08,0.17-0.12c1.33-0.86,1.07-3.21-0.46-4.06
		c-0.68-0.38-1.42-0.49-2.14-0.16c-0.38,0.18-0.59,0.06-0.83-0.17c-3.45-3.45-9.22-3.42-12.57-0.05c-0.27,0.27-0.54,0.2-0.87,0.11
		c-1.11-0.28-2.16,0.18-2.82,1.17c-0.6,0.9-0.55,2.03,0.13,2.97c0.23,0.06,0.35,0.24,0.5,0.4C15.83,19.73,16.01,19.93,15.88,20.23z"
		/>
	<path d="M16.12,47.8c-1.31,0-2.61-0.05-3.91,0.02c-0.69,0.04-0.86-0.26-0.96-0.83c-0.2-1.21-0.44-2.4-0.66-3.61
		c-0.14-0.78-0.52-1.45-1-2.06c-2.18-2.79-4.34-5.58-6.53-8.35c-1.23-1.56-1.89-3.31-2.01-5.28c-0.16-2.71-0.28-5.42-0.42-8.14
		c-0.03-0.53-0.1-1.12,0.54-1.36c0.62-0.24,1.06,0.13,1.46,0.56c0.59,0.63,0.84,1.4,0.98,2.22c0.34,1.96,0.69,3.93,1.02,5.89
		c0.06,0.36,0.03,0.71,0.6,0.38c0.47-0.28,0.75-0.01,0.73,0.53c0,0.03,0,0.05-0.01,0.08c-0.59,1.69,0.29,2.8,1.43,3.88
		c1.21,1.15,2.31,2.42,3.45,3.64c0.26,0.28,0.54,0.39,0.92,0.38c0.44-0.01,0.68-0.3,0.87-0.61c0.18-0.3-0.14-0.48-0.3-0.67
		c-1.24-1.46-2.49-2.9-3.74-4.36c-0.17-0.2-0.36-0.4-0.5-0.62c-0.41-0.64-0.16-1.18,0.58-1.24c1.24-0.11,2.42,0.09,3.35,0.97
		c1.44,1.37,2.86,2.78,4.1,4.34c1.13,1.43,1.65,3.14,2.14,4.85c0.82,2.89,1.62,5.78,2.47,8.66c0.17,0.58,0.11,0.75-0.52,0.73
		c-1.36-0.04-2.72-0.01-4.08-0.01C16.12,47.81,16.12,47.81,16.12,47.8z"/>
	<path d="M33.8,47.81c-1.38,0-2.77-0.01-4.15,0.01c-0.4,0-0.61-0.04-0.47-0.53c1.02-3.52,2.01-7.05,3.04-10.57
		c0.73-2.5,2.49-4.29,4.26-6.06c0.82-0.82,1.52-1.78,2.7-2.18c0.65-0.22,1.3-0.26,1.97-0.24c0.37,0.01,0.72,0.08,0.87,0.44
		c0.14,0.35-0.01,0.66-0.26,0.94c-1.33,1.55-2.66,3.11-3.98,4.67c-0.3,0.35-0.79,0.66-0.19,1.16c0.52,0.43,1.03,0.41,1.48-0.07
		c0.98-1.01,1.94-2.04,2.91-3.06c0.51-0.54,1-1.1,1.52-1.62c0.6-0.6,0.82-1.28,0.59-2.11c-0.08-0.28-0.11-0.58-0.11-0.87
		c-0.01-0.53,0.25-0.8,0.75-0.5c0.5,0.3,0.5,0.02,0.57-0.34c0.32-1.86,0.66-3.71,0.97-5.57c0.17-1.04,0.41-2.03,1.23-2.78
		c0.36-0.33,0.78-0.6,1.3-0.36c0.5,0.23,0.54,0.68,0.51,1.15c-0.17,3.06-0.29,6.12-0.52,9.17c-0.12,1.53-0.73,2.93-1.69,4.15
		c-2.21,2.83-4.4,5.66-6.61,8.49c-0.57,0.72-0.99,1.49-1.17,2.41c-0.22,1.12-0.49,2.23-0.62,3.37c-0.07,0.67-0.35,0.93-1.07,0.9
		C36.36,47.76,35.08,47.81,33.8,47.81C33.8,47.81,33.8,47.81,33.8,47.81z"/>
	<path d="M33.21,26.28c-0.9,0-1.81-0.03-2.71,0.01c-0.53,0.02-0.76-0.1-0.76-0.68c0-0.94-0.22-1.81-1.26-2.16
		c-0.25-0.09-0.26-0.29-0.27-0.52c-0.05-1.32,0.64-2.05,1.96-2.05c1.46,0,2.93-0.02,4.39,0.01c1.37,0.02,1.89,0.48,2.04,1.81
		c0.12,1,0.14,2.02,0.23,3.02c0.05,0.48-0.15,0.62-0.59,0.57c-0.03,0-0.05,0-0.08,0C35.17,26.29,34.19,26.29,33.21,26.28
		C33.21,26.29,33.21,26.28,33.21,26.28z"/>
	<path d="M16.66,26.29c-0.98,0-1.97-0.02-2.95,0.01c-0.44,0.01-0.64-0.1-0.59-0.57c0.12-1.14,0.16-2.28,0.31-3.41
		c0.12-0.92,0.63-1.39,1.53-1.41c1.7-0.04,3.4-0.05,5.1-0.02c1.06,0.02,1.82,1.04,1.68,2.11c-0.03,0.21-0.1,0.36-0.29,0.43
		c-1,0.36-1.25,1.18-1.23,2.1c0.01,0.66-0.25,0.8-0.84,0.77C18.47,26.25,17.56,26.28,16.66,26.29
		C16.66,26.28,16.66,26.29,16.66,26.29z"/>
	<path d="M25.66,27.08c0.47-0.49,0.45-1.17,0.67-1.75c0.22-0.57,0.22-1.29,1.17-1.15c0.84,0.12,1.52,0.66,1.61,1.5
		c0.07,0.61,0.12,1.22,0.11,1.83c-0.01,0.68,0.4,1.54-0.05,1.98c-0.41,0.4-1.27,0.1-1.93,0.11c-1.99,0.02-3.99,0-5.98,0.02
		c-0.52,0.01-0.7-0.12-0.64-0.67c0.11-1.06,0.12-2.12,0.2-3.18c0.1-1.27,1.77-2.19,2.83-1.49c0.5,0.33,0.46,1.09,0.66,1.66
		c0.13,0.36,0.19,0.75,0.46,1.11c0.22-0.48,0.11-0.94,0.22-1.37c0.13-0.27-0.01-0.58,0.11-0.85c0.19-0.16-0.8-0.68,0.18-0.59
		c0.21,0.35-0.05,0.77,0.15,1.12c0.01,0.21,0.03,0.42,0.04,0.63C25.62,26.33,25.37,26.75,25.66,27.08z"/>
	<path d="M27.48,21.34c0,1.29-1.03,2.35-2.3,2.37c-1.35,0.02-2.49-1.09-2.47-2.39c0.02-1.27,1.08-2.31,2.37-2.33
		C26.4,18.97,27.48,20.03,27.48,21.34z"/>
	<path d="M34.72,19.31l0.01,0.04c-0.19,0.22-0.41,0.39-0.66,0.54c-1.27,0.86-2.78,0.61-3.55-0.61c-0.75-1.18-0.36-2.58,0.95-3.32
		c0.77-0.44,1.93-0.28,2.67,0.36c0.74,0.65,0.99,1.7,0.63,2.62C34.72,19.06,34.47,19.16,34.72,19.31z"/>
	<path d="M15.39,18.93c-0.04-0.66-0.17-1.32,0.17-1.95c0.72-1.3,2.01-1.52,3.07-1.07c1.27,0.54,1.77,2.03,1.18,3.21
		c-0.56,1.12-2.03,1.6-3.23,1.06c-0.19-0.09-0.32-0.29-0.56-0.27c-0.21-0.07-0.28-0.28-0.41-0.42
		C15.43,19.34,15.47,19.11,15.39,18.93z"/>
	<path d="M15.39,18.93c0.1,0.16,0.21,0.33,0.31,0.49c0.07,0.16,0,0.19-0.14,0.15c-0.19-0.1-0.33-0.24-0.39-0.45
		C15.24,19.06,15.31,19,15.39,18.93z"/>
	<path d="M25.44,25.34c-0.29-0.34-0.09-0.75-0.15-1.12c0.13-0.02,0.33-0.03,0.26,0.13C25.38,24.68,25.53,25.02,25.44,25.34z"/>
	<path d="M25.66,27.08c-0.37-0.32-0.23-0.72-0.18-1.11C25.54,26.34,25.6,26.71,25.66,27.08z"/>
	<path d="M15.56,19.58c0.05-0.05,0.1-0.1,0.14-0.15c0.18,0.11,0.25,0.29,0.32,0.48c0.02,0.14-0.01,0.26-0.14,0.32
		C15.93,19.93,15.69,19.78,15.56,19.58z"/>
	<path d="M34.08,19.89c0.19-0.21,0.35-0.47,0.66-0.54c0.07,0.28-0.29,0.31-0.31,0.54C34.3,19.89,34.19,19.89,34.08,19.89z"/>
	<path d="M25.11,24.81c0.02,0.29,0.11,0.59-0.11,0.85C24.97,25.37,24.95,25.08,25.11,24.81z"/>
</g>
</svg>
