<?xml version="1.0" encoding="utf-8"?>
<!-- Generator: Adobe Illustrator 25.0.0, SVG Export Plug-In . SVG Version: 6.00 Build 0)  -->
<svg version="1.1" id="Layer_1" xmlns="http://www.w3.org/2000/svg" xmlns:xlink="http://www.w3.org/1999/xlink" x="0px" y="0px"
	 viewBox="0 0 50 50" style="enable-background:new 0 0 50 50;" xml:space="preserve">
<style type="text/css">
	.st0{fill:#020303;}
	.st1{fill:#131313;}
	.st2{fill:#FEFEFE;}
	.st3{fill:#0C0D0D;}
	.st4{fill:#0A0B0B;}
</style>
<g>
	<path d="M39.86,34.58c2.86-4.23,3.86-8.88,2.85-13.87C40.5,9.69,29,3.46,18.57,7.56C7.47,11.92,3.71,25.99,11.14,35.3
		c1.68,2.11,3.73,3.75,6.14,4.96c0.82,0.41,1.3,1.07,1.37,2c0.11,1.51,0.03,3.02,0.05,4.52c0.02,1.62,0.97,2.59,2.59,2.6
		c1.42,0.01,2.85,0,4.27,0c1.46,0,2.91,0.02,4.37,0c1.58-0.02,2.55-1.02,2.56-2.6c0.01-1.47,0-2.95,0-4.42
		c0-0.96,0.42-1.7,1.23-2.21c0.66-0.42,1.32-0.83,1.95-1.29c0.28-0.2,0.43-0.18,0.68,0.06c1.09,1.06,2.61,1.07,3.63,0.06
		c1-0.99,0.99-2.57-0.07-3.63C39.62,35.06,39.65,34.89,39.86,34.58z M30.9,45.88c-0.03,0.29,0,0.59-0.01,0.88
		c-0.02,0.7-0.33,1.01-1.03,1.01c-1.44,0-2.88,0-4.31,0c-1.4,0-2.81,0-4.21,0c-0.75,0-1.05-0.28-1.05-1.02
		c0-0.46-0.19-1.05,0.08-1.35c0.25-0.28,0.85-0.09,1.29-0.09c2.89-0.01,5.79,0.01,8.68-0.02C30.82,45.3,30.95,45.43,30.9,45.88z
		 M30.93,41.78c-0.09,0.5-0.05,1.03-0.03,1.55c0.01,0.28-0.07,0.39-0.38,0.39c-3.29-0.01-6.58-0.01-9.87,0
		c-0.3,0-0.38-0.09-0.37-0.38c0.01-0.6,0.06-1.21-0.1-1.81c-0.1-0.39,0.19-0.28,0.36-0.28c1.68-0.01,3.36,0,5.04,0
		c1.61,0,3.22,0.01,4.83-0.01C30.83,41.24,31.03,41.25,30.93,41.78z M33.42,38.43c-0.32,0.21-0.71,0.35-0.95,0.63
		c-0.49,0.57-1.09,0.6-1.76,0.6c-3.69-0.02-7.39-0.01-11.09,0c-0.31,0-0.56-0.06-0.79-0.29c-0.32-0.32-0.74-0.5-1.14-0.72
		c-4.85-2.63-7.75-6.67-8.63-12.1c-1.04-6.44,2.23-13.16,7.91-16.42c9.06-5.19,20.45-0.87,23.65,9.06c1.61,5,0.92,9.78-1.92,14.23
		c-0.21,0.32-0.33,0.42-0.65,0.08c-1.15-1.2-2.34-2.37-3.53-3.53c-0.22-0.21-0.23-0.37-0.09-0.62c0.53-0.95,0.53-0.95,1.62-0.9
		c0.62,0.03,1.25,0.05,1.87,0.1c0.25,0.02,0.38-0.04,0.43-0.3c0.22-1.17,0.45-2.34,0.7-3.51c0.06-0.27-0.05-0.32-0.26-0.39
		c-0.78-0.27-1.56-0.57-2.34-0.84c-0.31-0.1-0.42-0.27-0.51-0.6c-0.23-0.84,0.05-1.32,0.8-1.68c0.54-0.26,1.02-0.65,1.54-0.96
		c0.23-0.14,0.31-0.26,0.18-0.53c-0.51-1.06-1.01-2.13-1.5-3.2c-0.11-0.24-0.2-0.3-0.47-0.21c-0.81,0.25-1.64,0.44-2.44,0.7
		c-0.3,0.09-0.45-0.02-0.67-0.19c-0.67-0.54-0.84-1.11-0.39-1.9c0.29-0.5,0.42-1.1,0.66-1.63c0.11-0.25,0.05-0.36-0.17-0.49
		c-1.05-0.58-2.09-1.16-3.13-1.76c-0.22-0.13-0.32-0.08-0.47,0.1c-0.51,0.66-1.04,1.3-1.54,1.96c-0.17,0.23-0.33,0.33-0.64,0.26
		c-1.18-0.24-1.18-0.22-1.48-1.38c-0.14-0.53-0.3-1.07-0.43-1.6c-0.07-0.28-0.19-0.39-0.5-0.35c-1.15,0.15-2.31,0.28-3.46,0.38
		c-0.3,0.03-0.38,0.15-0.38,0.42c-0.01,0.8-0.05,1.59-0.06,2.39c0,0.34-0.16,0.48-0.44,0.66c-0.71,0.46-1.27,0.38-1.86-0.22
		c-0.44-0.44-0.97-0.78-1.45-1.19c-0.19-0.16-0.31-0.18-0.51,0c-0.86,0.8-1.74,1.6-2.62,2.38c-0.23,0.2-0.19,0.35-0.04,0.56
		c0.45,0.65,0.88,1.33,1.36,1.97c0.21,0.29,0.21,0.5,0.06,0.83c-0.33,0.71-0.74,1.07-1.59,0.87c-0.58-0.14-1.21-0.07-1.81-0.12
		c-0.31-0.03-0.47,0.05-0.53,0.38c-0.2,1.13-0.42,2.25-0.67,3.37c-0.06,0.29,0.01,0.39,0.27,0.49c0.75,0.25,1.49,0.56,2.25,0.8
		c0.39,0.12,0.49,0.32,0.58,0.71c0.17,0.74,0,1.19-0.7,1.53c-0.57,0.28-1.08,0.69-1.63,1.02c-0.26,0.15-0.32,0.28-0.18,0.57
		c0.5,1.03,0.99,2.06,1.45,3.11c0.14,0.33,0.31,0.33,0.59,0.24c0.78-0.24,1.57-0.43,2.34-0.67c0.29-0.09,0.45,0.01,0.67,0.19
		c0.71,0.56,0.84,1.15,0.38,1.95c-0.28,0.49-0.41,1.06-0.64,1.59c-0.1,0.24-0.09,0.36,0.16,0.49c1.05,0.57,2.09,1.15,3.13,1.75
		c0.24,0.14,0.35,0.07,0.5-0.13c0.49-0.64,1-1.24,1.47-1.88c0.22-0.29,0.44-0.31,0.79-0.3c0.89,0.04,1.26,0.49,1.38,1.32
		c0.08,0.56,0.29,1.1,0.43,1.66c0.06,0.26,0.16,0.37,0.45,0.34c1.17-0.15,2.34-0.28,3.52-0.39c0.31-0.03,0.35-0.17,0.36-0.43
		c0.01-0.82,0.05-1.63,0.06-2.45c0-0.28,0.11-0.42,0.37-0.54c1.22-0.56,1.22-0.57,2.18,0.39c1.11,1.11,2.23,2.23,3.38,3.38
		C34.37,37.8,33.9,38.12,33.42,38.43z M26.89,16.67c-4.14-0.98-8.19,1.68-8.91,5.85c-0.72,4.21,2.25,8.12,6.45,8.52
		c1.07,0.1,2.11-0.03,3.12-0.37c0.29-0.1,0.48-0.08,0.69,0.15c0.33,0.35,0.69,0.68,1.11,1.09c-0.59,0.27-1.07,0.5-1.56,0.7
		c-0.3,0.12-0.42,0.28-0.42,0.61c0.02,0.64-0.02,1.29-0.03,1.93c0,0.35-0.13,0.5-0.51,0.53c-0.98,0.09-0.97,0.12-1.23-0.82
		c-0.16-0.6-0.17-1.35-0.55-1.75c-0.38-0.41-1.17-0.31-1.77-0.45c-0.13-0.03-0.28-0.03-0.4-0.09c-0.97-0.44-1.63-0.08-2.1,0.8
		c-0.07,0.13-0.19,0.24-0.29,0.37c-0.64,0.82-0.64,0.81-1.54,0.31c-0.29-0.16-0.35-0.31-0.22-0.6c0.27-0.62,0.48-1.26,0.74-1.88
		c0.11-0.26,0.09-0.43-0.11-0.64c-0.65-0.67-1.29-1.36-1.91-2.06c-0.19-0.21-0.35-0.26-0.63-0.17c-0.68,0.21-1.37,0.37-2.05,0.58
		c-0.26,0.08-0.39,0.06-0.52-0.21c-0.47-0.97-0.48-0.96,0.42-1.55c0.51-0.33,1.22-0.56,1.46-1.02c0.22-0.44-0.05-1.14-0.12-1.72
		c-0.07-0.57,0.01-1.24-0.27-1.67c-0.28-0.44-1.01-0.44-1.53-0.66c-0.05-0.02-0.1-0.04-0.15-0.05c-1.03-0.37-1.01-0.36-0.77-1.42
		c0.06-0.28,0.19-0.31,0.43-0.29c0.72,0.05,1.45,0.07,2.18,0.13c0.26,0.02,0.41-0.06,0.53-0.29c0.46-0.84,0.93-1.66,1.41-2.49
		c0.13-0.23,0.12-0.39-0.04-0.6c-0.42-0.57-0.79-1.18-1.2-1.76c-0.16-0.22-0.19-0.35,0.04-0.55c0.79-0.74,0.78-0.74,1.62-0.07
		c0.47,0.38,0.92,0.96,1.45,1.05c0.56,0.1,1.13-0.42,1.7-0.67c0.51-0.22,1.18-0.35,1.45-0.74c0.26-0.4,0.11-1.07,0.13-1.62
		c0.04-1.14,0.04-1.14,1.14-1.27c0.25-0.03,0.37,0.01,0.44,0.28c0.17,0.71,0.39,1.4,0.57,2.1c0.06,0.24,0.17,0.34,0.41,0.38
		c0.95,0.18,1.91,0.37,2.85,0.58c0.24,0.05,0.38,0.01,0.53-0.19c0.43-0.56,0.89-1.11,1.32-1.68c0.18-0.24,0.3-0.29,0.58-0.12
		c0.93,0.55,0.93,0.53,0.55,1.52c-0.17,0.45-0.34,0.91-0.53,1.36c-0.1,0.23-0.05,0.37,0.11,0.55c0.66,0.69,1.32,1.39,1.95,2.09
		c0.18,0.2,0.34,0.24,0.59,0.16c0.66-0.2,1.34-0.36,2-0.57c0.33-0.11,0.49-0.05,0.64,0.28c0.41,0.91,0.42,0.9-0.42,1.43
		c-0.16,0.1-0.31,0.24-0.49,0.31c-0.99,0.38-1.24,1.07-0.96,2.07c0.16,0.58,0.18,1.2,0.23,1.8c0.02,0.28,0.14,0.42,0.41,0.51
		c0.67,0.22,1.33,0.49,2,0.71c0.3,0.09,0.35,0.21,0.28,0.52c-0.23,1.04-0.21,1.05-1.27,0.96c-0.03,0-0.07,0-0.1-0.01
		c-1.2-0.3-2.11-0.03-2.51,1.27c-0.13,0.42-0.29,0.27-0.56,0.07c-0.82-0.62-0.98-1.22-0.62-2.29
		C33.45,21.91,30.95,17.63,26.89,16.67z M30.87,23.74c0,3.16-2.56,5.72-5.72,5.72c-3.11,0.01-5.69-2.58-5.69-5.7
		c0.01-3.14,2.54-5.68,5.69-5.68C28.3,18.08,30.87,20.62,30.87,23.74z M38.84,37.83c-0.38,0.38-0.92,0.38-1.34-0.04
		c-2.67-2.66-5.32-5.32-7.98-7.98c-0.02-0.02-0.03-0.06-0.05-0.08c0.33-0.31,0.69-0.59,0.98-0.93c0.24-0.27,0.38-0.28,0.64-0.01
		c1.84,1.86,3.69,3.71,5.55,5.56c0.71,0.71,1.43,1.42,2.13,2.13C39.2,36.93,39.22,37.45,38.84,37.83z"/>
	<path d="M46.78,10.9c0.01,0.15-0.1,0.19-0.18,0.25c-1.2,0.96-2.41,1.92-3.6,2.89c-0.19,0.15-0.29,0.12-0.41-0.05
		c-0.02-0.03-0.04-0.05-0.06-0.08c-0.78-0.93-0.78-0.94,0.16-1.69c0.92-0.74,1.85-1.45,2.75-2.21c0.33-0.28,0.5-0.23,0.71,0.1
		C46.33,10.39,46.57,10.65,46.78,10.9z"/>
	<path d="M8.54,13.04c-0.19,0.24-0.41,0.48-0.58,0.75c-0.25,0.41-0.47,0.39-0.82,0.09c-1.09-0.91-2.2-1.79-3.32-2.66
		c-0.22-0.17-0.26-0.28-0.07-0.52c0.77-0.98,0.77-0.99,1.73-0.23c0.93,0.74,1.86,1.49,2.79,2.24C8.37,12.8,8.51,12.85,8.54,13.04z"
		/>
	<path d="M2.95,34.55c-0.09,0.02-0.15,0-0.19-0.07c-0.22-0.37-0.45-0.74-0.67-1.11c-0.11-0.19,0.07-0.24,0.18-0.3
		c1.17-0.7,2.34-1.4,3.51-2.11c0.2-0.12,0.3-0.11,0.44,0.1c0.72,1.08,0.73,1.08-0.36,1.73c-0.87,0.53-1.74,1.05-2.62,1.58
		C3.14,34.43,3.04,34.49,2.95,34.55z"/>
	<path d="M48.28,33.33c-0.26,0.41-0.49,0.82-0.75,1.21c-0.08,0.11-0.19,0-0.27-0.05c-1.19-0.71-2.38-1.42-3.57-2.13
		c-0.18-0.11-0.22-0.19-0.11-0.41c0.62-1.17,0.61-1.17,1.75-0.49c0.88,0.52,1.76,1.05,2.63,1.57
		C48.08,33.11,48.25,33.15,48.28,33.33z"/>
	<path d="M16.03,6.62c-0.2,0.15-0.41,0.28-0.59,0.45c-0.62,0.6-0.61,0.61-1.22,0c-0.78-0.78-1.55-1.57-2.35-2.34
		c-0.26-0.24-0.22-0.38,0.01-0.61c0.85-0.85,0.84-0.85,1.7,0C14.29,4.83,15,5.54,15.7,6.25C15.79,6.33,15.86,6.42,16.03,6.62z"/>
	<path d="M3.15,23.36c-0.68,0-1.35-0.01-2.03,0c-0.24,0-0.32-0.05-0.33-0.31c-0.06-1.29-0.06-1.29,1.21-1.29
		c1.07,0,2.15,0.01,3.22-0.02c0.35-0.01,0.43,0.11,0.43,0.44c0,1.17,0.02,1.17-1.15,1.17C4.05,23.36,3.6,23.36,3.15,23.36z"/>
	<path d="M47.17,21.76c0.67,0,1.35,0.02,2.02-0.01c0.31-0.01,0.37,0.1,0.37,0.38c-0.01,1.23,0,1.23-1.22,1.23c-1.09,0-2.18,0-3.27,0
		c-0.24,0-0.38-0.01-0.34-0.33c0.05-0.41-0.14-0.95,0.06-1.19c0.22-0.26,0.78-0.05,1.19-0.07C46.37,21.75,46.77,21.76,47.17,21.76
		C47.17,21.76,47.17,21.76,47.17,21.76z"/>
	<path d="M35.5,7.64c-0.09-0.08-0.15-0.13-0.21-0.19c-0.23-0.23-0.46-0.47-0.7-0.7c-0.18-0.16-0.19-0.28,0-0.46
		c0.94-0.92,1.87-1.86,2.79-2.8c0.17-0.17,0.27-0.18,0.46-0.01c0.97,0.89,0.98,0.88,0.04,1.82C37.18,6,36.5,6.68,35.81,7.37
		C35.72,7.46,35.61,7.55,35.5,7.64z"/>
	<path d="M24.36,2.6c0-0.57,0.01-1.14,0-1.71c0-0.19,0.02-0.31,0.25-0.27c0.02,0,0.03,0,0.05,0c1.33-0.04,1.33-0.04,1.33,1.31
		c0,0.76-0.01,1.52,0.01,2.29c0.01,0.32-0.05,0.46-0.42,0.46c-1.21,0.01-1.21,0.02-1.21-1.19C24.37,3.19,24.37,2.9,24.36,2.6
		C24.36,2.6,24.36,2.6,24.36,2.6z"/>
</g>
</svg>
